<svg width="99" height="67" viewBox="0 0 99 67" fill="none" xmlns="http://www.w3.org/2000/svg">
<g clip-path="url(#clip0_107_7158)">
<path d="M67.8137 11.9339C67.8137 11.9339 53.096 -2.55855 42.6665 2.5967C37.643 5.0787 41.3405 15.7079 41.3405 15.7079" fill="#FFB067"/>
<path d="M67.8137 11.9339C67.8137 11.9339 53.096 -2.55855 42.6665 2.5967C37.643 5.0787 41.3405 15.7079 41.3405 15.7079" stroke="#231F20" stroke-width="2.975" stroke-miterlimit="10"/>
<path d="M50.2356 62.0584C50.2356 62.0584 40.2098 68.3314 34.5616 63.9242C31.6801 61.6759 34.5616 56.6482 34.5616 56.6482" fill="#FFB067"/>
<path d="M50.2356 62.0584C50.2356 62.0584 40.2098 68.3314 34.5616 63.9242C31.6801 61.6759 34.5616 56.6482 34.5616 56.6482" stroke="#231F20" stroke-width="2.975" stroke-miterlimit="10"/>
<path d="M26.355 35.9296C26.355 35.9296 20.745 21.5773 13.2097 21.2926C2.15548 20.8761 5.33023 35.2708 10.9275 36.8518C7.06848 34.8798 -4.65727 49.6868 8.64523 55.5391C19.2617 60.2098 26.0532 45.4666 26.0532 45.4666" fill="#FFB067"/>
<path d="M26.355 35.9296C26.355 35.9296 20.745 21.5773 13.2097 21.2926C2.15548 20.8761 5.33023 35.2708 10.9275 36.8518C7.06848 34.8798 -4.65727 49.6868 8.64523 55.5391C19.2617 60.2098 26.0532 45.4666 26.0532 45.4666" stroke="#231F20" stroke-width="2.975" stroke-linecap="round" stroke-linejoin="round"/>
<path d="M92.5105 34.2464C92.0898 34.2846 91.7285 33.9574 91.7243 33.5366C91.6903 29.5331 89.8798 12.2186 61.2773 11.9381C28.9305 11.6194 26.6865 34.3569 26.6865 34.3569C26.6865 34.3569 18.7008 61.5781 59.2033 62.8616C99.7058 64.1451 98.2693 39.1976 96.191 36.3374C95.341 35.1686 93.8493 34.1316 92.5105 34.2506V34.2464Z" fill="#FFB067" stroke="#231F20" stroke-width="2.975" stroke-miterlimit="10"/>
<path d="M53.9207 32.3594C53.9207 32.3594 50.7034 41.9941 53.0792 49.7801" stroke="#231F20" stroke-width="1.275" stroke-miterlimit="10" stroke-linecap="round"/>
<path d="M81.3203 38.2969H72.4803C72.4803 38.2969 70.3681 52.2836 80.2663 46.8734" stroke="#231F20" stroke-width="1.275" stroke-miterlimit="10" stroke-linecap="round"/>
<path d="M52.208 40.4388C52.208 40.4388 44.3923 33.4008 42.348 39.0491C40.3038 44.6973 50.2403 42.3216 50.2403 42.3216" stroke="#231F20" stroke-width="1.275" stroke-miterlimit="10" stroke-linecap="round"/>
<path d="M83.305 35.9932C82.5069 35.9932 81.86 35.1788 81.86 34.1742C81.86 33.1696 82.5069 32.3552 83.305 32.3552C84.1031 32.3552 84.75 33.1696 84.75 34.1742C84.75 35.1788 84.1031 35.9932 83.305 35.9932Z" fill="black"/>
<path d="M69.2586 36.4564C68.4606 36.4564 67.8136 35.642 67.8136 34.6374C67.8136 33.6328 68.4606 32.8184 69.2586 32.8184C70.0567 32.8184 70.7036 33.6328 70.7036 34.6374C70.7036 35.642 70.0567 36.4564 69.2586 36.4564Z" fill="black"/>
</g>
<defs>
<clipPath id="clip0_107_7158">
<rect width="97.546" height="66.98" fill="white" transform="matrix(-1 0 0 1 98.52 0)"/>
</clipPath>
</defs>
</svg>
